<svg width="252" height="50" viewBox="0 0 252 50" fill="none" xmlns="http://www.w3.org/2000/svg">
<path d="M0 12C0 5.37258 5.37258 0 12 0H240C246.627 0 252 5.37258 252 12V38C252 44.6274 246.627 50 240 50H12C5.37258 50 0 44.6274 0 38V12Z" fill="#85BA6A"/>
<path d="M30.3023 18.008C33.4543 18.008 35.7983 18.728 37.3343 20.168C38.8703 21.592 39.6383 23.64 39.6383 26.312C39.6383 28.056 39.2623 29.584 38.5103 30.896C37.7583 32.192 36.6623 33.2 35.2223 33.92C33.7983 34.64 32.0863 35 30.0863 35C29.8303 35 29.4943 34.992 29.0783 34.976C28.6623 34.96 28.2303 34.952 27.7823 34.952C27.3343 34.936 26.9343 34.928 26.5823 34.928C25.8783 34.928 25.1823 34.936 24.4943 34.952C23.8223 34.952 23.2863 34.968 22.8863 35V34.52C23.3983 34.488 23.7823 34.424 24.0383 34.328C24.2943 34.232 24.4623 34.04 24.5423 33.752C24.6383 33.464 24.6863 33.032 24.6863 32.456V20.552C24.6863 19.96 24.6383 19.528 24.5423 19.256C24.4623 18.968 24.2863 18.776 24.0143 18.68C23.7583 18.568 23.3823 18.504 22.8863 18.488V18.008C23.2863 18.024 23.8223 18.048 24.4943 18.08C25.1823 18.096 25.8623 18.096 26.5343 18.08C27.1103 18.064 27.7583 18.048 28.4783 18.032C29.2143 18.016 29.8223 18.008 30.3023 18.008ZM30.2783 18.44C29.5423 18.44 29.0623 18.576 28.8383 18.848C28.6143 19.12 28.5023 19.672 28.5023 20.504V32.504C28.5023 33.336 28.6143 33.888 28.8383 34.16C29.0783 34.432 29.5663 34.568 30.3023 34.568C31.6463 34.568 32.7023 34.256 33.4703 33.632C34.2543 32.992 34.8143 32.064 35.1503 30.848C35.4863 29.632 35.6543 28.152 35.6543 26.408C35.6543 24.616 35.4703 23.136 35.1023 21.968C34.7503 20.784 34.1823 19.904 33.3983 19.328C32.6143 18.736 31.5743 18.44 30.2783 18.44ZM47.4711 22.256C48.6391 22.256 49.6631 22.472 50.5431 22.904C51.4231 23.336 52.1111 24.032 52.6071 24.992C53.1031 25.952 53.3511 27.224 53.3511 28.808C53.3511 30.392 53.1031 31.664 52.6071 32.624C52.1111 33.568 51.4231 34.256 50.5431 34.688C49.6631 35.12 48.6391 35.336 47.4711 35.336C46.3351 35.336 45.3191 35.12 44.4231 34.688C43.5431 34.256 42.8471 33.568 42.3351 32.624C41.8391 31.664 41.5911 30.392 41.5911 28.808C41.5911 27.224 41.8391 25.952 42.3351 24.992C42.8471 24.032 43.5431 23.336 44.4231 22.904C45.3191 22.472 46.3351 22.256 47.4711 22.256ZM47.4711 22.736C46.8311 22.736 46.2951 23.216 45.8631 24.176C45.4311 25.12 45.2151 26.664 45.2151 28.808C45.2151 30.952 45.4311 32.496 45.8631 33.44C46.2951 34.384 46.8311 34.856 47.4711 34.856C48.1271 34.856 48.6631 34.384 49.0791 33.44C49.5111 32.496 49.7271 30.952 49.7271 28.808C49.7271 26.664 49.5111 25.12 49.0791 24.176C48.6631 23.216 48.1271 22.736 47.4711 22.736ZM60.3288 22.592V23.096C59.9768 23.096 59.6648 23.12 59.3928 23.168C59.1368 23.2 58.9608 23.312 58.8648 23.504C58.7848 23.696 58.8168 24.008 58.9608 24.44L61.2408 31.568L60.9288 31.904L63.7368 22.568L64.2168 22.784L60.5448 35.048C60.2888 35.032 60.0328 35.024 59.7768 35.024C59.5208 35.024 59.2568 35.032 58.9848 35.048L55.1928 24.44C54.9688 23.8 54.7208 23.416 54.4488 23.288C54.1928 23.16 53.9768 23.096 53.8007 23.096V22.592C54.3128 22.64 54.8408 22.68 55.3848 22.712C55.9448 22.728 56.5528 22.736 57.2088 22.736C57.7048 22.736 58.2248 22.72 58.7688 22.688C59.3288 22.656 59.8488 22.624 60.3288 22.592ZM72.8568 22.592V23.072C72.5528 23.152 72.2648 23.336 71.9928 23.624C71.7208 23.912 71.4648 24.416 71.2248 25.136L68.0328 35.048C67.7768 35.032 67.5128 35.024 67.2408 35.024C66.9848 35.024 66.7288 35.032 66.4728 35.048L63.0888 25.808L63.7368 22.568C64.0248 22.584 64.3128 22.592 64.6008 22.592C64.9048 22.576 65.2008 22.568 65.4888 22.568L68.7768 32.264L68.5128 32L70.1208 26.912C70.3928 26.032 70.4968 25.32 70.4328 24.776C70.3688 24.232 70.1768 23.824 69.8568 23.552C69.5368 23.28 69.1048 23.12 68.5608 23.072V22.592C68.8168 22.608 69.0888 22.624 69.3768 22.64C69.6808 22.64 69.9768 22.648 70.2648 22.664C70.5688 22.664 70.8248 22.664 71.0328 22.664C71.3528 22.664 71.6808 22.656 72.0168 22.64C72.3688 22.624 72.6488 22.608 72.8568 22.592ZM82.3634 22.256C83.0354 22.256 83.5794 22.344 83.9954 22.52C84.4274 22.68 84.7634 22.904 85.0034 23.192C85.2594 23.496 85.4434 23.888 85.5554 24.368C85.6834 24.848 85.7474 25.496 85.7474 26.312V32.768C85.7474 33.44 85.8594 33.896 86.0834 34.136C86.3234 34.376 86.7234 34.496 87.2834 34.496V35C86.9794 34.984 86.5234 34.968 85.9154 34.952C85.3074 34.92 84.7074 34.904 84.1154 34.904C83.5074 34.904 82.9074 34.92 82.3154 34.952C81.7394 34.968 81.2994 34.984 80.9954 35V34.496C81.4754 34.496 81.8114 34.376 82.0034 34.136C82.1954 33.896 82.2914 33.44 82.2914 32.768V25.304C82.2914 24.904 82.2514 24.56 82.1714 24.272C82.0914 23.968 81.9474 23.736 81.7394 23.576C81.5314 23.4 81.2194 23.312 80.8034 23.312C80.3714 23.312 79.9714 23.432 79.6034 23.672C79.2514 23.912 78.9634 24.248 78.7394 24.68C78.5314 25.096 78.4274 25.568 78.4274 26.096V32.768C78.4274 33.44 78.5234 33.896 78.7154 34.136C78.9234 34.376 79.2594 34.496 79.7234 34.496V35C79.4354 34.984 79.0114 34.968 78.4514 34.952C77.9074 34.92 77.3394 34.904 76.7474 34.904C76.1394 34.904 75.5154 34.92 74.8754 34.952C74.2354 34.968 73.7554 34.984 73.4354 35V34.496C73.9954 34.496 74.3874 34.376 74.6114 34.136C74.8514 33.896 74.9714 33.44 74.9714 32.768V25.208C74.9714 24.488 74.8594 23.96 74.6354 23.624C74.4274 23.272 74.0274 23.096 73.4354 23.096V22.592C73.9474 22.64 74.4434 22.664 74.9234 22.664C75.5954 22.664 76.2194 22.64 76.7954 22.592C77.3874 22.528 77.9314 22.44 78.4274 22.328V24.488C78.8274 23.672 79.3714 23.096 80.0594 22.76C80.7474 22.424 81.5154 22.256 82.3634 22.256ZM93.0736 16.208V32.768C93.0736 33.44 93.1856 33.896 93.4096 34.136C93.6496 34.376 94.0496 34.496 94.6096 34.496V35C94.3056 34.984 93.8496 34.968 93.2416 34.952C92.6336 34.92 92.0176 34.904 91.3936 34.904C90.7696 34.904 90.1376 34.92 89.4976 34.952C88.8736 34.968 88.4016 34.984 88.0816 35V34.496C88.6416 34.496 89.0336 34.376 89.2576 34.136C89.4976 33.896 89.6176 33.44 89.6176 32.768V19.088C89.6176 18.368 89.5056 17.84 89.2816 17.504C89.0736 17.152 88.6736 16.976 88.0816 16.976V16.472C88.5936 16.52 89.0896 16.544 89.5696 16.544C90.2256 16.544 90.8496 16.52 91.4416 16.472C92.0336 16.408 92.5776 16.32 93.0736 16.208ZM101.588 22.256C102.756 22.256 103.78 22.472 104.66 22.904C105.54 23.336 106.228 24.032 106.724 24.992C107.22 25.952 107.468 27.224 107.468 28.808C107.468 30.392 107.22 31.664 106.724 32.624C106.228 33.568 105.54 34.256 104.66 34.688C103.78 35.12 102.756 35.336 101.588 35.336C100.452 35.336 99.4363 35.12 98.5403 34.688C97.6603 34.256 96.9643 33.568 96.4523 32.624C95.9563 31.664 95.7083 30.392 95.7083 28.808C95.7083 27.224 95.9563 25.952 96.4523 24.992C96.9643 24.032 97.6603 23.336 98.5403 22.904C99.4363 22.472 100.452 22.256 101.588 22.256ZM101.588 22.736C100.948 22.736 100.412 23.216 99.9803 24.176C99.5483 25.12 99.3323 26.664 99.3323 28.808C99.3323 30.952 99.5483 32.496 99.9803 33.44C100.412 34.384 100.948 34.856 101.588 34.856C102.244 34.856 102.78 34.384 103.196 33.44C103.628 32.496 103.844 30.952 103.844 28.808C103.844 26.664 103.628 25.12 103.196 24.176C102.78 23.216 102.244 22.736 101.588 22.736ZM112.279 35.168C111.559 35.168 110.959 35.032 110.479 34.76C109.999 34.488 109.647 34.128 109.423 33.68C109.199 33.216 109.087 32.712 109.087 32.168C109.087 31.48 109.239 30.92 109.543 30.488C109.863 30.056 110.271 29.704 110.767 29.432C111.263 29.16 111.783 28.936 112.327 28.76C112.887 28.584 113.415 28.416 113.911 28.256C114.423 28.08 114.831 27.88 115.135 27.656C115.455 27.416 115.615 27.112 115.615 26.744V24.872C115.615 24.456 115.543 24.088 115.399 23.768C115.271 23.432 115.063 23.176 114.775 23C114.503 22.824 114.143 22.736 113.695 22.736C113.375 22.736 113.055 22.784 112.735 22.88C112.415 22.96 112.151 23.104 111.943 23.312C112.391 23.472 112.735 23.72 112.975 24.056C113.231 24.376 113.359 24.744 113.359 25.16C113.359 25.704 113.167 26.136 112.783 26.456C112.415 26.776 111.975 26.936 111.463 26.936C110.887 26.936 110.447 26.76 110.143 26.408C109.855 26.04 109.711 25.6 109.711 25.088C109.711 24.624 109.823 24.24 110.047 23.936C110.287 23.632 110.615 23.344 111.031 23.072C111.479 22.816 112.015 22.616 112.639 22.472C113.279 22.328 113.967 22.256 114.703 22.256C115.439 22.256 116.103 22.336 116.695 22.496C117.287 22.64 117.783 22.912 118.183 23.312C118.551 23.68 118.791 24.136 118.903 24.68C119.015 25.208 119.071 25.88 119.071 26.696V33.224C119.071 33.624 119.111 33.904 119.191 34.064C119.271 34.208 119.407 34.28 119.599 34.28C119.743 34.28 119.879 34.24 120.007 34.16C120.151 34.08 120.303 33.984 120.463 33.872L120.703 34.28C120.367 34.568 119.975 34.792 119.527 34.952C119.095 35.096 118.607 35.168 118.063 35.168C117.471 35.168 116.999 35.088 116.647 34.928C116.295 34.752 116.039 34.52 115.879 34.232C115.735 33.944 115.663 33.608 115.663 33.224C115.279 33.832 114.815 34.312 114.271 34.664C113.727 35 113.063 35.168 112.279 35.168ZM113.983 33.632C114.303 33.632 114.591 33.56 114.847 33.416C115.119 33.256 115.375 33 115.615 32.648V27.728C115.471 27.968 115.271 28.184 115.015 28.376C114.759 28.568 114.487 28.768 114.199 28.976C113.911 29.168 113.631 29.384 113.359 29.624C113.103 29.864 112.895 30.16 112.735 30.512C112.575 30.864 112.495 31.288 112.495 31.784C112.495 32.408 112.631 32.872 112.903 33.176C113.175 33.48 113.535 33.632 113.983 33.632ZM133.197 16.208V32.36C133.197 33.08 133.309 33.616 133.533 33.968C133.757 34.304 134.157 34.472 134.733 34.472V34.976C134.237 34.928 133.741 34.904 133.245 34.904C132.573 34.904 131.941 34.928 131.349 34.976C130.773 35.024 130.237 35.112 129.741 35.24V19.088C129.741 18.368 129.629 17.84 129.405 17.504C129.197 17.152 128.797 16.976 128.205 16.976V16.472C128.717 16.52 129.213 16.544 129.693 16.544C130.349 16.544 130.973 16.52 131.565 16.472C132.157 16.408 132.701 16.32 133.197 16.208ZM127.077 22.256C127.781 22.256 128.397 22.376 128.925 22.616C129.469 22.84 129.893 23.224 130.197 23.768L129.909 24.032C129.701 23.648 129.421 23.376 129.069 23.216C128.733 23.04 128.373 22.952 127.989 22.952C127.173 22.952 126.525 23.432 126.045 24.392C125.565 25.336 125.333 26.8 125.349 28.784C125.349 30.144 125.437 31.232 125.613 32.048C125.805 32.848 126.069 33.424 126.405 33.776C126.757 34.128 127.157 34.304 127.605 34.304C128.149 34.304 128.637 34.088 129.069 33.656C129.501 33.224 129.733 32.64 129.765 31.904L129.885 32.744C129.645 33.592 129.253 34.24 128.709 34.688C128.181 35.12 127.485 35.336 126.621 35.336C125.677 35.336 124.829 35.104 124.077 34.64C123.341 34.176 122.765 33.464 122.349 32.504C121.933 31.528 121.725 30.272 121.725 28.736C121.725 27.28 121.957 26.08 122.421 25.136C122.885 24.176 123.517 23.456 124.317 22.976C125.133 22.496 126.053 22.256 127.077 22.256ZM141.574 18.008C141.974 18.024 142.51 18.04 143.182 18.056C143.87 18.072 144.55 18.08 145.222 18.08C145.99 18.08 146.734 18.072 147.454 18.056C148.174 18.04 148.686 18.032 148.99 18.032C150.478 18.032 151.71 18.2 152.686 18.536C153.678 18.856 154.414 19.328 154.894 19.952C155.39 20.576 155.638 21.328 155.638 22.208C155.638 22.752 155.526 23.304 155.302 23.864C155.078 24.408 154.694 24.92 154.15 25.4C153.622 25.864 152.894 26.24 151.966 26.528C151.038 26.8 149.87 26.936 148.462 26.936H146.158V26.456H148.222C149.166 26.456 149.878 26.28 150.358 25.928C150.854 25.56 151.19 25.08 151.366 24.488C151.558 23.88 151.654 23.208 151.654 22.472C151.654 21.208 151.43 20.232 150.982 19.544C150.534 18.84 149.766 18.488 148.678 18.488C148.054 18.488 147.646 18.624 147.454 18.896C147.278 19.168 147.19 19.72 147.19 20.552V32.456C147.19 33.032 147.23 33.464 147.31 33.752C147.406 34.04 147.582 34.232 147.838 34.328C148.094 34.424 148.478 34.488 148.99 34.52V35C148.558 34.968 148.014 34.952 147.358 34.952C146.702 34.936 146.038 34.928 145.366 34.928C144.598 34.928 143.87 34.936 143.182 34.952C142.51 34.952 141.974 34.968 141.574 35V34.52C142.086 34.488 142.47 34.424 142.726 34.328C142.982 34.232 143.15 34.04 143.23 33.752C143.326 33.464 143.374 33.032 143.374 32.456V20.552C143.374 19.96 143.326 19.528 143.23 19.256C143.15 18.968 142.974 18.776 142.702 18.68C142.446 18.568 142.07 18.504 141.574 18.488V18.008ZM146.11 26.528C146.798 26.544 147.39 26.576 147.886 26.624C148.398 26.672 148.846 26.72 149.23 26.768C149.614 26.8 149.958 26.824 150.262 26.84C151.718 26.968 152.79 27.28 153.478 27.776C154.182 28.272 154.638 29.016 154.846 30.008L155.398 32.48C155.542 33.12 155.694 33.568 155.854 33.824C156.014 34.08 156.246 34.208 156.55 34.208C156.758 34.192 156.926 34.144 157.054 34.064C157.198 33.968 157.35 33.832 157.51 33.656L157.846 33.944C157.414 34.44 156.95 34.792 156.454 35C155.958 35.224 155.358 35.336 154.654 35.336C153.79 35.336 153.078 35.152 152.518 34.784C151.958 34.416 151.59 33.736 151.414 32.744L150.982 30.344C150.87 29.672 150.734 29.088 150.574 28.592C150.414 28.08 150.19 27.68 149.902 27.392C149.63 27.088 149.246 26.936 148.75 26.936H146.158L146.11 26.528ZM164.143 22.256C165.551 22.256 166.655 22.672 167.455 23.504C168.255 24.336 168.655 25.696 168.655 27.584H160.759L160.711 27.128H165.631C165.647 26.344 165.599 25.624 165.487 24.968C165.375 24.296 165.199 23.76 164.959 23.36C164.719 22.96 164.399 22.76 163.999 22.76C163.439 22.76 162.959 23.112 162.559 23.816C162.175 24.52 161.943 25.688 161.863 27.32L161.935 27.464C161.919 27.656 161.903 27.856 161.887 28.064C161.887 28.272 161.887 28.488 161.887 28.712C161.887 29.816 162.039 30.712 162.343 31.4C162.663 32.088 163.063 32.592 163.543 32.912C164.023 33.216 164.511 33.368 165.007 33.368C165.343 33.368 165.687 33.32 166.039 33.224C166.407 33.112 166.775 32.92 167.143 32.648C167.511 32.36 167.855 31.96 168.175 31.448L168.607 31.592C168.415 32.2 168.111 32.792 167.695 33.368C167.279 33.944 166.751 34.416 166.111 34.784C165.471 35.152 164.703 35.336 163.807 35.336C162.719 35.336 161.759 35.104 160.927 34.64C160.095 34.176 159.439 33.472 158.959 32.528C158.495 31.584 158.263 30.384 158.263 28.928C158.263 27.44 158.511 26.2 159.007 25.208C159.519 24.216 160.215 23.48 161.095 23C161.991 22.504 163.007 22.256 164.143 22.256ZM174.797 22.256C175.469 22.256 176.053 22.344 176.549 22.52C177.061 22.68 177.429 22.84 177.653 23C178.197 23.368 178.533 23.128 178.661 22.28H179.165C179.133 22.728 179.109 23.28 179.093 23.936C179.077 24.576 179.069 25.432 179.069 26.504H178.565C178.485 25.912 178.333 25.328 178.109 24.752C177.885 24.176 177.557 23.704 177.125 23.336C176.709 22.968 176.165 22.784 175.493 22.784C175.029 22.784 174.637 22.92 174.317 23.192C173.997 23.448 173.837 23.824 173.837 24.32C173.837 24.8 173.981 25.224 174.269 25.592C174.557 25.944 174.925 26.288 175.373 26.624C175.837 26.944 176.317 27.288 176.813 27.656C177.341 28.056 177.821 28.456 178.253 28.856C178.685 29.24 179.029 29.664 179.285 30.128C179.541 30.592 179.669 31.144 179.669 31.784C179.669 32.504 179.461 33.136 179.045 33.68C178.629 34.208 178.077 34.616 177.389 34.904C176.717 35.192 175.965 35.336 175.133 35.336C174.653 35.336 174.221 35.288 173.837 35.192C173.469 35.096 173.149 34.976 172.877 34.832C172.669 34.736 172.469 34.648 172.277 34.568C172.101 34.472 171.933 34.392 171.773 34.328C171.613 34.28 171.469 34.336 171.341 34.496C171.229 34.656 171.141 34.88 171.077 35.168H170.573C170.605 34.656 170.629 34.032 170.645 33.296C170.661 32.56 170.669 31.584 170.669 30.368H171.173C171.269 31.232 171.445 32 171.701 32.672C171.957 33.328 172.301 33.848 172.733 34.232C173.181 34.6 173.741 34.784 174.413 34.784C174.685 34.784 174.949 34.728 175.205 34.616C175.461 34.504 175.669 34.32 175.829 34.064C176.005 33.808 176.093 33.48 176.093 33.08C176.093 32.376 175.861 31.792 175.397 31.328C174.949 30.864 174.373 30.36 173.669 29.816C173.157 29.4 172.669 28.992 172.205 28.592C171.757 28.176 171.389 27.728 171.101 27.248C170.813 26.752 170.669 26.192 170.669 25.568C170.669 24.848 170.861 24.24 171.245 23.744C171.629 23.248 172.133 22.88 172.757 22.64C173.397 22.384 174.077 22.256 174.797 22.256ZM193.083 22.328V32.384C193.083 33.104 193.195 33.64 193.419 33.992C193.643 34.328 194.043 34.496 194.619 34.496V35C194.123 34.952 193.627 34.928 193.131 34.928C192.459 34.928 191.835 34.952 191.259 35C190.683 35.048 190.139 35.136 189.627 35.264V33.104C189.243 33.904 188.707 34.48 188.019 34.832C187.347 35.168 186.595 35.336 185.763 35.336C185.091 35.336 184.547 35.248 184.131 35.072C183.715 34.896 183.387 34.672 183.147 34.4C182.875 34.096 182.683 33.696 182.571 33.2C182.459 32.704 182.403 32.064 182.403 31.28V25.208C182.403 24.488 182.291 23.96 182.067 23.624C181.859 23.272 181.459 23.096 180.867 23.096V22.592C181.379 22.64 181.875 22.664 182.355 22.664C183.027 22.664 183.651 22.64 184.227 22.592C184.819 22.528 185.363 22.44 185.859 22.328V32.264C185.859 32.664 185.891 33.016 185.955 33.32C186.035 33.624 186.179 33.864 186.387 34.04C186.595 34.2 186.899 34.28 187.299 34.28C187.731 34.28 188.115 34.16 188.451 33.92C188.803 33.68 189.083 33.352 189.291 32.936C189.515 32.504 189.627 32.024 189.627 31.496V25.208C189.627 24.488 189.515 23.96 189.291 23.624C189.083 23.272 188.683 23.096 188.091 23.096V22.592C188.603 22.64 189.099 22.664 189.579 22.664C190.251 22.664 190.875 22.64 191.451 22.592C192.043 22.528 192.587 22.44 193.083 22.328ZM204.397 22.256C205.069 22.256 205.613 22.344 206.029 22.52C206.445 22.68 206.781 22.904 207.037 23.192C207.293 23.496 207.477 23.896 207.589 24.392C207.701 24.872 207.757 25.512 207.757 26.312V32.768C207.757 33.44 207.861 33.896 208.069 34.136C208.277 34.376 208.637 34.496 209.149 34.496V35C208.861 34.984 208.421 34.968 207.829 34.952C207.253 34.92 206.685 34.904 206.125 34.904C205.549 34.904 204.981 34.92 204.421 34.952C203.861 34.968 203.437 34.984 203.149 35V34.496C203.581 34.496 203.877 34.376 204.037 34.136C204.213 33.896 204.301 33.44 204.301 32.768V25.304C204.301 24.904 204.269 24.56 204.205 24.272C204.141 23.968 204.013 23.736 203.821 23.576C203.645 23.4 203.373 23.312 203.005 23.312C202.589 23.312 202.205 23.432 201.853 23.672C201.501 23.912 201.213 24.248 200.989 24.68C200.781 25.096 200.677 25.568 200.677 26.096V32.768C200.677 33.44 200.765 33.896 200.941 34.136C201.117 34.376 201.413 34.496 201.829 34.496V35C201.573 34.984 201.173 34.968 200.629 34.952C200.101 34.92 199.557 34.904 198.997 34.904C198.389 34.904 197.765 34.92 197.125 34.952C196.485 34.968 196.005 34.984 195.685 35V34.496C196.245 34.496 196.637 34.376 196.861 34.136C197.101 33.896 197.221 33.44 197.221 32.768V25.208C197.221 24.488 197.109 23.96 196.885 23.624C196.677 23.272 196.277 23.096 195.685 23.096V22.592C196.197 22.64 196.693 22.664 197.173 22.664C197.845 22.664 198.469 22.64 199.045 22.592C199.637 22.528 200.181 22.44 200.677 22.328V24.488C201.061 23.688 201.581 23.12 202.237 22.784C202.893 22.432 203.613 22.256 204.397 22.256ZM211.621 22.256C212.293 22.256 212.837 22.344 213.253 22.52C213.669 22.68 214.005 22.904 214.261 23.192C214.517 23.496 214.701 23.896 214.813 24.392C214.925 24.872 214.981 25.512 214.981 26.312V32.768C214.981 33.44 215.093 33.896 215.317 34.136C215.557 34.376 215.957 34.496 216.517 34.496V35C216.213 34.984 215.757 34.968 215.149 34.952C214.541 34.92 213.941 34.904 213.349 34.904C212.773 34.904 212.205 34.92 211.645 34.952C211.085 34.968 210.661 34.984 210.373 35V34.496C210.805 34.496 211.101 34.376 211.261 34.136C211.437 33.896 211.525 33.44 211.525 32.768V25.304C211.525 24.904 211.485 24.56 211.405 24.272C211.341 23.968 211.205 23.736 210.997 23.576C210.805 23.4 210.501 23.312 210.085 23.312C209.669 23.312 209.285 23.44 208.933 23.696C208.581 23.952 208.293 24.296 208.069 24.728C207.861 25.16 207.749 25.64 207.733 26.168L207.613 24.704C208.045 23.744 208.613 23.096 209.317 22.76C210.037 22.424 210.805 22.256 211.621 22.256ZM223.604 22.256C225.012 22.256 226.116 22.672 226.916 23.504C227.716 24.336 228.116 25.696 228.116 27.584H220.22L220.172 27.128H225.092C225.108 26.344 225.06 25.624 224.948 24.968C224.836 24.296 224.66 23.76 224.42 23.36C224.18 22.96 223.86 22.76 223.46 22.76C222.9 22.76 222.42 23.112 222.02 23.816C221.636 24.52 221.404 25.688 221.324 27.32L221.396 27.464C221.38 27.656 221.364 27.856 221.348 28.064C221.348 28.272 221.348 28.488 221.348 28.712C221.348 29.816 221.5 30.712 221.804 31.4C222.124 32.088 222.524 32.592 223.004 32.912C223.484 33.216 223.972 33.368 224.468 33.368C224.804 33.368 225.148 33.32 225.5 33.224C225.868 33.112 226.236 32.92 226.604 32.648C226.972 32.36 227.316 31.96 227.636 31.448L228.068 31.592C227.876 32.2 227.572 32.792 227.156 33.368C226.74 33.944 226.212 34.416 225.572 34.784C224.932 35.152 224.164 35.336 223.268 35.336C222.18 35.336 221.22 35.104 220.388 34.64C219.556 34.176 218.9 33.472 218.42 32.528C217.956 31.584 217.724 30.384 217.724 28.928C217.724 27.44 217.972 26.2 218.468 25.208C218.98 24.216 219.676 23.48 220.556 23C221.452 22.504 222.468 22.256 223.604 22.256Z" fill="black"/>
</svg>
