<svg width="252" height="50" viewBox="0 0 252 50" fill="none" xmlns="http://www.w3.org/2000/svg">
<path d="M0 12C0 5.37258 5.37258 0 12 0H240C246.627 0 252 5.37258 252 12V38C252 44.6274 246.627 50 240 50H12C5.37258 50 0 44.6274 0 38V12Z" fill="black"/>
<path d="M126 29.3333V10M126 29.3333L118 22.8889M126 29.3333L134 22.8889M106 32.5556L107.242 36.5592C107.458 37.2563 107.958 37.8751 108.661 38.3174C109.364 38.7596 110.23 38.9999 111.122 39H140.878C141.77 38.9999 142.636 38.7596 143.339 38.3174C144.042 37.8751 144.542 37.2563 144.758 36.5592L146 32.5556" stroke="#85BA6A" stroke-width="4" stroke-linecap="round" stroke-linejoin="round"/>
</svg>
