<svg width="59" height="78" viewBox="0 0 59 78" fill="none" xmlns="http://www.w3.org/2000/svg">
<path d="M25.5819 47.2901L25.4002 59.6785C25.4002 62.0936 25.1276 63.8378 24.7642 64.8217C24.4008 65.8057 23.7648 66.7001 22.947 67.4604C21.4024 68.8021 19.9033 69.2046 17.4955 69.2046C15.8146 69.2046 14.5426 69.0257 13.2706 68.3549C12.044 67.684 11.2263 67.0132 10.6357 65.8951C9.99967 64.777 10.0905 62.675 10.0905 59.8127L10.1814 41.0735H5.27502V59.768C5.27502 62.2278 5.41131 64.0614 5.72932 65.2242C6.04732 66.3871 6.41076 67.371 6.86505 68.176C7.36477 68.9363 7.90992 69.6966 8.59136 70.3227C10.4085 71.9775 12.5891 72.9614 15.3149 73.3192C15.9963 73.4086 16.7686 73.4534 17.5409 73.4534C18.3132 73.4534 19.0401 73.4086 19.7215 73.3192C22.4019 72.9614 24.5825 71.9328 26.3542 70.3227C27.0357 69.6519 27.6262 68.9363 28.0805 68.176C28.5803 67.371 28.9437 66.3423 29.2617 65.1348C29.5797 63.972 29.7614 62.183 29.7614 59.8127V51.8966L25.5819 47.2901V47.2901Z" fill="white"/>
<path d="M23.265 5.25L10.3631 19.9193L10.2268 20.0982V5.25H5.27502V39.9554H10.2268V21.8871L13.4977 23.6314L13.5886 23.5419L29.4888 5.25H23.265Z" fill="white"/>
<path d="M42.2999 22.8711V27.2092H48.9326V34.2308L48.7509 35.4384C45.5254 36.3328 43.3448 35.8856 41.3459 35.8856C37.3027 35.8856 33.9863 34.4992 31.3969 32.0841C28.8074 29.6243 27.4899 26.4937 27.4899 22.6474C27.4899 18.8012 28.8074 15.8495 31.3969 13.345C33.9863 10.7957 37.1664 9.54346 40.937 9.54346C44.9802 9.54346 49.0689 10.7063 53.2029 13.0766L53.5209 8.69371C50.8406 7.62035 49.2051 6.59171 46.5702 5.87613C44.7985 5.38417 42.9813 5.25 41.0279 5.25C35.6672 5.25 31.2606 6.90477 27.7171 10.3038C24.1736 13.658 22.4019 17.862 22.4019 22.9158C22.4019 27.9695 24.0827 31.771 27.5354 35.0359C30.9426 38.3454 35.5309 39.7318 41.2096 39.9554C45.4345 40.1343 48.66 40.0449 53.8844 39.9554V22.8711H42.2999Z" fill="white"/>
<path d="M31.7603 73.677L53.8844 41.1183L47.8423 41.0735L26.1271 73.5428L31.7603 73.677Z" fill="white"/>
<path d="M53.8844 69.2493V73.3192H50.5681L40.0739 61.4227L36.7575 57.6659L10.2268 27.6117L5.27502 21.9766V14.15L10.2268 19.7404L10.3631 19.9193L13.5886 23.5419L39.7104 53.1936L39.7559 53.2383L43.1176 56.9951V57.0398L53.8844 69.2493Z" fill="white"/>
<path d="M4 2H2V4V74V76H4H55H57V74V4V2H55H4Z" stroke="white" stroke-width="4" stroke-miterlimit="10"/>
</svg>
