<?xml version="1.0" encoding="UTF-8"?><svg id="Layer_2" xmlns="http://www.w3.org/2000/svg" viewBox="0 0 11.5 16.02"><defs><style>.cls-1{fill:none;stroke:#000;stroke-miterlimit:10;stroke-width:.8px;}</style></defs><g id="Layer_1-2"><g><path d="M4.87,9.8l-.04,2.77c0,.54-.06,.93-.14,1.15-.08,.22-.22,.42-.4,.59-.34,.3-.67,.39-1.2,.39-.37,0-.65-.04-.93-.19-.27-.15-.45-.3-.58-.55-.14-.25-.12-.72-.12-1.36l.02-4.19H.4v4.18c0,.55,.03,.96,.1,1.22s.15,.48,.25,.66c.11,.17,.23,.34,.38,.48,.4,.37,.88,.59,1.48,.67,.15,.02,.32,.03,.49,.03s.33-.01,.48-.03c.59-.08,1.07-.31,1.46-.67,.15-.15,.28-.31,.38-.48,.11-.18,.19-.41,.26-.68,.07-.26,.11-.66,.11-1.19v-1.77l-.92-1.03Z"/><path d="M4.36,.4L1.52,3.68l-.03,.04V.4H.4v7.76H1.49V4.12l.72,.39,.02-.02L5.73,.4h-1.37Z"/><path d="M8.55,4.34v.97h1.46v1.57l-.04,.27c-.71,.2-1.19,.1-1.63,.1-.89,0-1.62-.31-2.19-.85-.57-.55-.86-1.25-.86-2.11s.29-1.52,.86-2.08c.57-.57,1.27-.85,2.1-.85,.89,0,1.79,.26,2.7,.79l.07-.98c-.59-.24-.95-.47-1.53-.63-.39-.11-.79-.14-1.22-.14-1.18,0-2.15,.37-2.93,1.13-.78,.75-1.17,1.69-1.17,2.82s.37,1.98,1.13,2.71c.75,.74,1.76,1.05,3.01,1.1,.93,.04,1.64,.02,2.79,0v-3.82h-2.55Z"/><polygon points="6.23 15.7 11.1 8.42 9.77 8.41 4.99 15.67 6.23 15.7"/><polygon points="11.1 14.71 11.1 15.62 10.37 15.62 8.06 12.96 7.33 12.12 1.49 5.4 .4 4.14 .4 2.39 1.49 3.64 1.52 3.68 2.23 4.49 7.98 11.12 7.99 11.13 8.73 11.97 8.73 11.98 11.1 14.71"/></g><rect class="cls-1" x=".4" y=".4" width="10.7" height="15.22"/></g></svg>