<svg width="33" height="41" viewBox="0 0 33 41" fill="none" xmlns="http://www.w3.org/2000/svg">
<path d="M8.8784 25.9717C8.50273 25.9717 8.24956 26.0084 8.1189 26.0452V28.4503C8.27406 28.487 8.46802 28.4972 8.73548 28.4972C9.71344 28.4972 10.3157 28.0031 10.3157 27.1681C10.3157 26.4208 9.79715 25.9717 8.8784 25.9717V25.9717ZM15.9977 25.9962C15.5894 25.9962 15.3239 26.0329 15.1667 26.0697V31.3984C15.3239 31.4352 15.5771 31.4352 15.8058 31.4352C17.4738 31.4474 18.56 30.5287 18.56 28.585C18.5722 26.8904 17.582 25.9962 15.9977 25.9962V25.9962Z" fill="black"/>
<path d="M20.5833 0.083313H4.24996C3.16699 0.083313 2.12838 0.51352 1.36261 1.27929C0.596833 2.04507 0.166626 3.08368 0.166626 4.16665V36.8333C0.166626 37.9163 0.596833 38.9549 1.36261 39.7207C2.12838 40.4864 3.16699 40.9166 4.24996 40.9166H28.75C29.8329 40.9166 30.8715 40.4864 31.6373 39.7207C32.4031 38.9549 32.8333 37.9163 32.8333 36.8333V12.3333L20.5833 0.083313ZM11.3917 29.0546C10.7608 29.6466 9.82983 29.9121 8.74571 29.9121C8.5355 29.9143 8.32539 29.9021 8.11688 29.8753V32.7867H6.29163V24.7507C7.11535 24.6279 7.94766 24.5719 8.78042 24.5833C9.91763 24.5833 10.7261 24.7997 11.2713 25.2346C11.7898 25.647 12.141 26.3228 12.141 27.1191C12.139 27.9194 11.8735 28.5952 11.3917 29.0546V29.0546ZM19.1643 31.821C18.3068 32.5336 17.0022 32.8725 15.4077 32.8725C14.4522 32.8725 13.7764 32.8112 13.317 32.75V24.7528C14.141 24.6325 14.9731 24.5758 15.8058 24.5833C17.3513 24.5833 18.3558 24.861 19.1398 25.4531C19.9871 26.0819 20.518 27.0844 20.518 28.5237C20.518 30.0815 19.9483 31.1575 19.1643 31.821V31.821ZM26.7083 26.1554H23.5805V28.0154H26.5041V29.5139H23.5805V32.7888H21.7307V24.6446H26.7083V26.1554ZM20.5833 14.375H18.5416V4.16665L28.75 14.375H20.5833Z" fill="black"/>
</svg>
