<svg width="752" height="752" viewBox="0 0 752 752" fill="none" xmlns="http://www.w3.org/2000/svg">
<path d="M398.86 390.278V449.846H420.329V390.278C420.318 361.478 404.986 334.858 380.077 320.404C391.268 305.735 396.56 287.41 394.916 269.041C393.279 250.665 384.819 233.571 371.203 221.122C357.593 208.668 339.812 201.767 321.365 201.767C302.921 201.767 285.141 208.668 271.526 221.122C257.916 233.571 249.456 250.665 247.813 269.041C246.17 287.41 251.467 305.735 262.652 320.404C237.72 334.847 222.349 361.461 222.298 390.278V449.846H243.767L243.762 390.278C243.756 378.816 247.048 367.596 253.258 357.965C259.462 348.333 268.319 340.695 278.755 335.963L281.651 337.68C283.26 338.751 284.977 339.72 286.586 340.576L286.591 340.581C288.087 341.386 289.629 342.1 291.204 342.729C293.725 343.902 296.303 344.944 298.932 345.84C313.347 350.707 328.957 350.707 343.372 345.84C346.041 344.961 348.658 343.924 351.203 342.729C352.749 342.1 354.251 341.386 355.713 340.581C357.418 339.72 359.067 338.751 360.648 337.686L363.651 335.969L363.657 335.963C374.145 340.649 383.046 348.276 389.296 357.914C395.546 367.552 398.866 378.795 398.861 390.278H398.86ZM355.282 315.146V315.14C340.738 327.033 321.037 330.456 303.336 324.16C297.539 322.138 292.157 319.084 287.448 315.14C276.535 305.836 269.929 292.452 269.169 278.128C268.41 263.81 273.571 249.804 283.442 239.395C293.312 228.992 307.024 223.1 321.366 223.1C335.712 223.1 349.425 228.992 359.294 239.395C369.164 249.804 374.32 263.81 373.567 278.128C372.808 292.452 366.195 305.836 355.283 315.14L355.282 315.146Z" fill="black"/>
<path d="M159.19 458.874C132.581 423.398 118.263 380.216 118.406 335.868C118.536 268.945 151.212 206.266 205.998 167.824C260.789 129.391 330.851 120.008 393.827 142.666L401.125 122.49V122.484C339.517 100.437 271.399 106.013 214.196 137.794C156.996 169.569 116.274 224.463 102.449 288.417C88.6233 352.37 103.044 419.185 142.015 471.749L159.19 458.874Z" fill="black"/>
<path d="M542.259 524.017L529.165 537.111L486.232 494.178C527.578 451.682 550.691 394.722 550.633 335.433C550.621 323.5 549.686 311.585 547.839 299.799L526.37 303.233H526.376C528.092 313.88 528.954 324.646 528.948 335.433C529.101 383.182 512.653 429.503 482.424 466.468C452.195 503.433 410.056 528.751 363.226 538.082L367.305 559.551V559.545C405.518 552.23 441.175 535.107 470.774 509.847L513.707 552.78L500.612 565.874V565.88C495.06 571.473 491.937 579.031 491.937 586.919C491.937 594.8 495.059 602.364 500.612 607.957L578.215 685.667L593.457 670.425L515.537 592.391C512.664 589.145 512.664 584.26 515.537 581.014L557.392 539.153C560.661 535.906 565.936 535.906 569.2 539.153L658.181 628.241L673.423 613.215L584.335 524.127C578.759 518.552 571.206 515.413 563.319 515.396C555.438 515.373 547.868 518.478 542.258 524.019L542.259 524.017Z" fill="black"/>
<path d="M687.268 130.214H429.669C423.743 130.214 418.938 135.019 418.938 140.951V269.747C418.938 272.597 420.065 275.329 422.077 277.34C424.094 279.352 426.825 280.485 429.669 280.485H687.268C690.113 280.485 692.844 279.352 694.855 277.34C696.867 275.329 698 272.598 698 269.747V140.951C698 138.101 696.867 135.37 694.855 133.358C692.844 131.347 690.113 130.214 687.268 130.214L687.268 130.214ZM676.531 259.016H440.4V151.683H676.531V259.016Z" fill="black"/>
<path d="M461.871 173.149H655.081V194.619H461.871V173.149Z" fill="black"/>
<path d="M461.871 216.085H569.204V237.554H461.871V216.085Z" fill="black"/>
<path d="M590.678 216.085H655.078V237.554H590.678V216.085Z" fill="black"/>
<path d="M322.331 484.417H64.7318C58.8051 484.417 54.0002 489.222 54.0002 495.149V623.951C54.0002 626.801 55.1277 629.527 57.1393 631.544C59.1564 633.555 61.8874 634.683 64.7319 634.683H322.331C325.175 634.683 327.906 633.555 329.918 631.544C331.929 629.527 333.062 626.801 333.062 623.951V495.149C333.062 492.305 331.929 489.573 329.918 487.562C327.906 485.551 325.175 484.417 322.331 484.417L322.331 484.417ZM311.593 613.22H75.4623V505.887H311.593V613.22Z" fill="black"/>
<path d="M96.9334 527.353H290.143V548.822H96.9334V527.353Z" fill="black"/>
<path d="M96.9334 570.288H204.266V591.758H96.9334V570.288Z" fill="black"/>
<path d="M225.74 570.288H290.14V591.758H225.74V570.288Z" fill="black"/>
</svg>
