<?xml version="1.0" encoding="UTF-8"?>
<svg width="752pt" height="752pt" version="1.1" viewBox="0 0 752 752" xmlns="http://www.w3.org/2000/svg">
 <g>
  <path d="m391.76 392.5v41.066h14.801v-41.066c-0.007812-19.855-10.578-38.207-27.75-48.172 7.7148-10.113 11.363-22.746 10.23-35.41-1.1289-12.668-6.9609-24.453-16.348-33.035-9.3828-8.5859-21.641-13.344-34.359-13.344-12.715 0-24.973 4.7578-34.359 13.344-9.3828 8.582-15.215 20.367-16.348 33.035-1.1328 12.664 2.5195 25.297 10.23 35.41-17.188 9.957-27.785 28.305-27.82 48.172v41.066h14.801l-0.003906-41.066c-0.003907-7.9023 2.2656-15.637 6.5469-22.277 4.2773-6.6406 10.383-11.906 17.578-15.168l1.9961 1.1836c1.1094 0.73828 2.293 1.4062 3.4023 1.9961l0.003906 0.003907c1.0312 0.55469 2.0938 1.0469 3.1797 1.4805 1.7383 0.80859 3.5156 1.5273 5.3281 2.1445 9.9375 3.3555 20.699 3.3555 30.637 0 1.8398-0.60547 3.6445-1.3203 5.3984-2.1445 1.0664-0.43359 2.1016-0.92578 3.1094-1.4805 1.1758-0.59375 2.3125-1.2617 3.4023-1.9961l2.0703-1.1836 0.003907-0.003906c7.2305 3.2305 13.367 8.4883 17.676 15.133 4.3086 6.6445 6.5977 14.395 6.5938 22.312zm-30.043-51.797v-0.003906c-10.027 8.1992-23.609 10.559-35.812 6.2188-3.9961-1.3945-7.707-3.5-10.953-6.2188-7.5234-6.4141-12.078-15.641-12.602-25.516-0.52344-9.8711 3.0352-19.527 9.8398-26.703 6.8047-7.1719 16.258-11.234 26.145-11.234 9.8906 0 19.344 4.0625 26.148 11.234 6.8047 7.1758 10.359 16.832 9.8398 26.703-0.52344 9.875-5.082 19.102-12.605 25.516z"/>
  <path d="m226.53 439.79c-18.344-24.457-28.215-54.227-28.117-84.801 0.089844-46.137 22.617-89.348 60.387-115.85 37.773-26.496 86.074-32.965 129.49-17.344l5.0312-13.91v-0.003906c-42.473-15.199-89.434-11.355-128.87 10.555-39.434 21.906-67.508 59.75-77.039 103.84-9.5312 44.09 0.41016 90.152 27.277 126.39z"/>
  <path d="m490.62 484.7-9.0273 9.0273-29.598-29.598c28.504-29.297 44.438-68.566 44.398-109.44-0.007812-8.2266-0.65234-16.441-1.9258-24.566l-14.801 2.3672h0.003906c1.1836 7.3398 1.7773 14.762 1.7734 22.199 0.10547 32.918-11.234 64.852-32.074 90.336s-49.891 42.938-82.176 49.371l2.8125 14.801v-0.003907c26.344-5.043 50.926-16.848 71.332-34.262l29.598 29.598-9.0273 9.0273v0.003906c-3.8281 3.8555-5.9805 9.0664-5.9805 14.504 0 5.4336 2.1523 10.648 5.9805 14.504l53.5 53.574 10.508-10.508-53.719-53.797c-1.9805-2.2383-1.9805-5.6055 0-7.8438l28.855-28.859c2.2539-2.2383 5.8906-2.2383 8.1406 0l61.344 61.418 10.508-10.359-61.418-61.418c-3.8438-3.8438-9.0508-6.0078-14.488-6.0195-5.4336-0.015624-10.652 2.125-14.52 5.9453z"/>
  <path d="m590.59 213.21h-177.59c-4.0859 0-7.3984 3.3125-7.3984 7.4023v88.793c0 1.9648 0.77734 3.8477 2.1641 5.2344 1.3906 1.3867 3.2734 2.168 5.2344 2.168h177.59c1.9609 0 3.8438-0.78125 5.2305-2.168s2.168-3.2695 2.168-5.2344v-88.793c0-1.9648-0.78125-3.8477-2.168-5.2344s-3.2695-2.168-5.2305-2.168zm-7.4023 88.797h-162.79v-73.996h162.79z"/>
  <path d="m435.2 242.81h133.2v14.801h-133.2z"/>
  <path d="m435.2 272.41h73.996v14.801h-73.996z"/>
  <path d="m524 272.41h44.398v14.801h-44.398z"/>
  <path d="m339 457.4h-177.59c-4.0859 0-7.3984 3.3125-7.3984 7.3984v88.797c0 1.9648 0.77734 3.8438 2.1641 5.2344 1.3906 1.3867 3.2734 2.1641 5.2344 2.1641h177.59c1.9609 0 3.8438-0.77734 5.2305-2.1641 1.3867-1.3906 2.168-3.2695 2.168-5.2344v-88.797c0-1.9609-0.78125-3.8438-2.168-5.2305-1.3867-1.3867-3.2695-2.168-5.2305-2.168zm-7.4023 88.797h-162.79v-73.996h162.79z"/>
  <path d="m183.61 487h133.2v14.801h-133.2z"/>
  <path d="m183.61 516.6h73.996v14.801h-73.996z"/>
  <path d="m272.41 516.6h44.398v14.801h-44.398z"/>
 </g>
</svg>
